<svg xmlns="http://www.w3.org/2000/svg" viewBox="0 0 128 128">
  <defs>
    <linearGradient id="bg" x1="18" y1="12" x2="110" y2="116" gradientUnits="userSpaceOnUse">
      <stop offset="0" stop-color="#f7f9fc"/>
      <stop offset="1" stop-color="#d9ecff"/>
    </linearGradient>
    <linearGradient id="accent" x1="28" y1="26" x2="100" y2="102" gradientUnits="userSpaceOnUse">
      <stop offset="0" stop-color="#3a76f0"/>
      <stop offset="1" stop-color="#0086d1"/>
    </linearGradient>
    <filter id="shadow" x="-20%" y="-20%" width="140%" height="140%">
      <feDropShadow dx="0" dy="4" stdDeviation="5" flood-color="#0f3555" flood-opacity="0.22"/>
    </filter>
  </defs>

  <rect x="10" y="10" width="108" height="108" rx="24" fill="url(#bg)"/>
  <rect x="10" y="10" width="108" height="108" rx="24" fill="none" stroke="#0f3555" stroke-opacity="0.16" stroke-width="2"/>

  <g filter="url(#shadow)">
    <path d="M36 26h46l18 18v54a8 8 0 0 1-8 8H36a8 8 0 0 1-8-8V34a8 8 0 0 1 8-8z" fill="#ffffff"/>
    <path d="M82 26v16a4 4 0 0 0 4 4h14z" fill="#cfe0ff"/>
    <path d="M42 48h40" stroke="#1c2230" stroke-opacity="0.22" stroke-width="5" stroke-linecap="round"/>
    <path d="M42 64h44" stroke="#1c2230" stroke-opacity="0.22" stroke-width="5" stroke-linecap="round"/>
    <path d="M42 80h28" stroke="#1c2230" stroke-opacity="0.22" stroke-width="5" stroke-linecap="round"/>
  </g>

  <path d="M35 96c11-29 19-43 29-43s18 14 29 43" fill="none" stroke="url(#accent)" stroke-width="12" stroke-linecap="round"/>
  <path d="M64 58v37" stroke="#ffffff" stroke-width="4" stroke-linecap="round" stroke-dasharray="7 8"/>
  <circle cx="64" cy="53" r="8" fill="#2e7b4a" stroke="#ffffff" stroke-width="4"/>
</svg>
